<?xml version="1.0" encoding="iso-8859-1"?>
<!-- Uploaded to: SVG Repo, www.svgrepo.com, Generator: SVG Repo Mixer Tools -->
<!DOCTYPE svg PUBLIC "-//W3C//DTD SVG 1.1//EN" "http://www.w3.org/Graphics/SVG/1.1/DTD/svg11.dtd">
<svg fill="#000000" height="800px" width="800px" version="1.1" id="Capa_1" xmlns="http://www.w3.org/2000/svg" xmlns:xlink="http://www.w3.org/1999/xlink" 
	 viewBox="0 0 297 297" xml:space="preserve">
<path d="M154.573,166.979l-56.908,22.763C84.156,190.849,73.5,202.189,73.5,215.979c0,14.521,11.812,26.333,26.333,26.333
	c14.521,0,26.334-11.813,26.334-26.333c0-5.304-1.582-10.243-4.29-14.381L181.5,177.75l59.623,23.849
	c-2.709,4.138-4.29,9.077-4.29,14.381c0,14.521,11.813,26.333,26.334,26.333S289.5,230.5,289.5,215.979
	c0-13.79-10.656-25.13-24.165-26.238l-56.908-22.763l57.605-23.042H287c5.522,0,10-4.478,10-10V99.312c0-5.522-4.478-10-10-10h-29.5
	v-7.5c0-5.522-4.478-10-10-10H165c-5.522,0-10,4.478-10,10v7.5H98.488l-84.774-33.91c-3.081-1.23-6.573-0.855-9.32,1.005
	S0,61.369,0,64.687v34.625c0,4.089,2.489,7.767,6.286,9.285L154.573,166.979z M99.833,222.312c-3.492,0-6.333-2.841-6.333-6.333
	c0-3.485,2.829-6.321,6.311-6.333c0.008,0,0.016,0.002,0.025,0.002c0.009,0,0.019-0.001,0.028-0.001
	c3.478,0.017,6.303,2.851,6.303,6.333C106.167,219.471,103.325,222.312,99.833,222.312z M263.167,222.312
	c-3.492,0-6.334-2.841-6.334-6.333c0-3.481,2.825-6.315,6.302-6.333c0.01,0,0.019,0.001,0.029,0.001
	c0.008,0,0.016-0.002,0.025-0.002c3.482,0.012,6.311,2.848,6.311,6.333C269.5,219.471,266.659,222.312,263.167,222.312z M175,91.812
	h62.5v29.5H175V91.812z M20,79.458l72.849,29.14c1.182,0.472,2.441,0.715,3.714,0.715H155v14.625H98.488L20,92.542V79.458z
	 M181.5,156.208l-30.678-12.271h61.356L181.5,156.208z M277,123.937h-19.5v-14.625H277V123.937z"/>
</svg>